<svg width="24" height="24" viewBox="0 0 24 24" fill="none" xmlns="http://www.w3.org/2000/svg">
<path fill-rule="evenodd" clip-rule="evenodd" d="M12.0774 22.3859C17.7705 22.3859 22.3856 17.7707 22.3856 12.0777C22.3856 6.38466 17.7705 1.76953 12.0774 1.76953C6.38437 1.76953 1.76924 6.38466 1.76924 12.0777C1.76924 17.7707 6.38437 22.3859 12.0774 22.3859ZM21.3856 12.0777C21.3856 17.2185 17.2182 21.3859 12.0774 21.3859C6.93665 21.3859 2.76924 17.2185 2.76924 12.0777C2.76924 6.93694 6.93665 2.76953 12.0774 2.76953C17.2182 2.76953 21.3856 6.93694 21.3856 12.0777ZM15.4718 15.4059C15.7282 15.5085 16.0192 15.3838 16.1217 15.1274C16.2243 14.871 16.0996 14.58 15.8432 14.4774L12.5774 13.1711V7.78154C12.5774 7.5054 12.3536 7.28154 12.0774 7.28154C11.8013 7.28154 11.5774 7.5054 11.5774 7.78154V13.5096C11.5774 13.7141 11.7019 13.898 11.8917 13.9739L15.4718 15.4059Z" fill="#999999"/>
</svg>
