<svg width="60" height="80" viewBox="0 0 60 80" fill="none" xmlns="http://www.w3.org/2000/svg">
<g clip-path="url(#clip0)">
<path d="M57.7969 15.2969L44.6875 2.1875C43.2812 0.78125 41.375 -0.015625 39.3906 -0.015625H7.5C3.35938 0 0 3.35937 0 7.5V72.5C0 76.6406 3.35938 80 7.5 80H52.5C56.6406 80 60 76.6406 60 72.5V20.6094C60 18.625 59.2031 16.7031 57.7969 15.2969ZM54.2656 18.8438C54.5937 19.1719 54.8125 19.5625 54.9219 20H40V5.07812C40.4375 5.1875 40.8281 5.40625 41.1562 5.73438L54.2656 18.8438ZM52.5 75H7.5C6.125 75 5 73.875 5 72.5V7.5C5 6.125 6.125 5 7.5 5H35V21.25C35 23.3281 36.6719 25 38.75 25H55V72.5C55 73.875 53.875 75 52.5 75ZM49.0625 48.25C46.9531 46.1719 40.4688 46.8125 37.5469 47.2031C34.2344 45.2031 32.0469 42.4531 30.5 38.3594C31.1719 35.5469 32.375 30.9844 31.5 28.2188C30.8125 23.8281 25.2969 24.3594 24.5312 27.1563C23.75 30.0156 24.4844 34.0938 25.8438 39.3125C23.9844 43.75 21.2031 49.7656 19.2656 53.1563C16.0156 54.8281 10.8125 57.7344 10.0781 61.3438C9.53125 63.9688 13.6562 67.5 18.375 62.3438C19.7969 60.7969 21.3906 58.4688 23.2656 55.2344C27.4375 53.8594 32.0312 52.1406 36.0781 51.4844C39.5 53.3594 43.5156 54.5938 46.1719 54.5938C50.5 54.6094 50.6875 49.875 49.0625 48.25ZM13.25 62.1562C14.1719 59.6719 17.7188 56.7812 18.7969 55.7812C15.3438 61.2969 13.25 62.2656 13.25 62.1562ZM28.125 27.4219C29.4844 27.4219 29.3438 33.2812 28.4531 34.8594C27.6406 32.3125 27.6719 27.4219 28.125 27.4219ZM23.6875 52.3125C25.4531 49.2188 26.9687 45.5625 28.1875 42.3594C29.7031 45.125 31.6406 47.3125 33.6719 48.8438C29.875 49.5781 26.5781 51.2031 23.6875 52.3125ZM47.6562 51.3906C47.6562 51.3906 46.75 52.4844 40.8594 49.9688C47.2656 49.5 48.3125 50.9688 47.6562 51.3906Z" fill="#03A3DF"/>
</g>
<defs>
<clipPath id="clip0">
<rect width="60" height="80" fill="white"/>
</clipPath>
</defs>
</svg>
